# xmcd CD database file
#
# Track frame offsets:
#	150
#	24796
#	45721
#	61752
#	69632
#	87709
#	95388
#	107182
#	128223
#	143559
#	166424
#	184268
#
# Disc length: 2573 seconds
#
# Revision: 1
# Processed by: cddbd v1.5.2PL0 Copyright (c) Steve Scherf et al.
# Submitted via: CDex 1.70beta2
#
DISCID=a10a0b0c
DTITLE=Sergio Pommerening - Musicas Para Consultorio - World
DYEAR=2007
DGENRE=New Age
TTITLE0=Movements Of The Future
TTITLE1=Himalayan Mysteries
TTITLE2=Spirit Chaser
TTITLE3=Amazon Wind
TTITLE4=Colours Of Birth
TTITLE5=Rainforest Song
TTITLE6=Voyager In Andes
TTITLE7=Walking With Egiptians
TTITLE8=New World New Life
TTITLE9=The Ritual
TTITLE10=Everybody Grooves
TTITLE11=Reflections
EXTD=YEAR: 2007
EXTT0=
EXTT1=
EXTT2=
EXTT3=
EXTT4=
EXTT5=
EXTT6=
EXTT7=
EXTT8=
EXTT9=
EXTT10=
EXTT11=
PLAYORDER=
